<svg xmlns="http://www.w3.org/2000/svg" viewBox="0 0 425 109.38">
	<defs>
		<style>
			.migDarkBlue {
				fill: #262262;
			}
			.migLightBlue {
				fill: #27aae1;
			}
		</style>
	</defs>
	<path class="migDarkBlue" d="M34.18,88.53V37.4c0-3.31-2.61-4.78-6-4.78-3.68,0-7.05,1.84-11,4.17V88.53H0v-66H16.25v6.62c7.21-4.91,10.88-7.85,19-7.85,8.58,0,11.34,2.45,15,7.85,8.28-6.38,12.88-7.85,19.16-7.85,10.73,0,16.1,5.27,16.1,13.85V88.53H68.36V37.4c0-3.31-2.76-4.78-6.13-4.78-3.68,0-7.05,1.84-10.88,4.17V88.53Z"/>
	<path class="migDarkBlue" d="M94.85,12.51V0H112V12.51Zm0,76v-66H112v66Z"/>
	<path class="migLightBlue" d="M178.21,32.73a20.87,20.87,0,0,0-2.76-.12,14.67,14.67,0,0,0-8.28,2.09A34.6,34.6,0,0,1,169,45.12c0,20.11-8.58,26.49-26.05,26.49h-5.52c-1.84.37-3.37,1.47-3.37,3.06,0,9,44.14-4.29,44.14,19,0,11.28-13.18,15.7-35.25,15.7-17.17,0-27.29-3.68-27.29-10.55,0-5.15,5.21-9.2,11.19-10.3v-.25c-4.59-1.47-7.82-4-7.82-8.33,0-4.54,5.82-8.59,10.42-10.67-8.58-4.78-11-8.21-11-23.66,0-18.15,7.36-24.28,26.67-24.28,7.36,0,13.64,2.08,19,7.11,4.6-5.4,6.9-7.11,14.1-7.11ZM162.88,94.66c0-3.44-3.07-4.91-14.56-4.91s-14.56,1.47-14.56,4.91,3.06,4.9,14.56,4.9S162.88,98.09,162.88,94.66Zm-11-48.19c0-11.16-1.84-13.86-8.58-13.86-5.52,0-8.58,2.7-8.58,13.86s3.07,13.86,8.58,13.86C150,60.33,151.84,57.63,151.84,46.47Z" transform="translate(0 0)"/>
	<path class="migLightBlue" d="M232.47,58.12H196.3v9.56c0,7.6,3.37,10.79,9.5,10.79s9.5-3.19,9.5-10.79V66.21h17.17c-.31,14-7.51,23.54-26.67,23.54-19.62,0-26.67-10.06-26.67-24.52V45.86c0-14.47,7-24.52,26.67-24.52s26.67,10.05,26.67,24.52ZM215.3,46.84V43.41c0-7.6-3.37-10.8-9.5-10.8s-9.5,3.19-9.5,10.8v3.43Z"/>
	<path class="migLightBlue" d="M238.26,88.53v-66h16.25v6.62c7.2-4.91,10.88-7.85,20.85-7.85,9,0,14.41,5.27,14.41,13.85V88.53H272.59V37.4c0-3.31-2.45-4.78-6.13-4.78s-7,1.84-11,4.17V88.53Z"/>
	<path class="migLightBlue" d="M296.62,12.51V0h17.17V12.51Zm0,76v-66h17.17v66Z"/>
	<path class="migLightBlue" d="M372.15,22.56v66H355.91V81.91c-7.21,4.91-10.88,7.85-20.85,7.85-9,0-14.41-5.28-14.41-13.86V22.56h17.17V73.69c0,3.31,2.45,4.78,6.13,4.78s7.05-1.84,11-4.17V22.56Z"/>
	<path class="migLightBlue" d="M410.13,40.83c-1.23-5.27-4.29-8.22-9.81-8.22-4.45,0-7.51,1.84-7.51,5.28C392.81,48.19,425,52.36,425,72c0,11.77-10.12,17.78-24.06,17.78-15,0-23.61-6.87-26.21-18.39l15-3.31c1.07,5.52,3.53,10.43,11.34,10.43,4.45,0,7.67-2.09,7.67-5.77,0-11.4-32.19-15.69-32.19-33.72,0-10.42,10.11-17.66,23-17.66,13.49,0,22.53,7.23,25.14,17.53Z"/>
</svg>
